<svg width="75" height="78" viewBox="0 0 75 78" fill="none" xmlns="http://www.w3.org/2000/svg">
<path d="M25.0857 59.3227C25.0857 59.6273 24.7379 59.8711 24.2994 59.8711C23.8004 59.9168 23.4526 59.673 23.4526 59.3227C23.4526 59.018 23.8004 58.7742 24.2389 58.7742C24.6925 58.7285 25.0857 58.9723 25.0857 59.3227ZM20.3831 58.6371C20.2772 58.9418 20.5796 59.2922 21.0333 59.3836C21.4264 59.5359 21.88 59.3836 21.9708 59.0789C22.0615 58.7742 21.7742 58.4238 21.3206 58.2867C20.9274 58.1801 20.4889 58.3324 20.3831 58.6371ZM27.0665 58.3781C26.628 58.4848 26.3256 58.7742 26.371 59.1246C26.4163 59.4293 26.8095 59.6273 27.2631 59.5207C27.7016 59.4141 28.004 59.1246 27.9587 58.8199C27.9133 58.5305 27.505 58.3324 27.0665 58.3781ZM37.0161 0C16.0433 0 0 16.0418 0 37.1719C0 54.0668 10.5544 68.5242 25.63 73.6125C27.5655 73.9629 28.246 72.7594 28.246 71.7691C28.246 70.8246 28.2006 65.6144 28.2006 62.4152C28.2006 62.4152 17.6159 64.7004 15.3931 57.8754C15.3931 57.8754 13.6694 53.4422 11.1895 52.2996C11.1895 52.2996 7.72681 49.9078 11.4315 49.9535C11.4315 49.9535 15.1966 50.2582 17.2681 53.884C20.5796 59.7645 26.129 58.0734 28.2913 57.068C28.6391 54.6305 29.622 52.9394 30.7107 51.934C22.2581 50.9894 13.7298 49.7555 13.7298 35.1C13.7298 30.9105 14.879 28.8082 17.2984 26.127C16.9052 25.1367 15.62 21.0539 17.6915 15.7828C20.8518 14.7926 28.125 19.8961 28.125 19.8961C31.1492 19.043 34.4002 18.6012 37.621 18.6012C40.8417 18.6012 44.0927 19.043 47.1169 19.8961C47.1169 19.8961 54.3901 14.7773 57.5504 15.7828C59.622 21.0691 58.3367 25.1367 57.9436 26.127C60.3629 28.8234 61.8448 30.9258 61.8448 35.1C61.8448 49.8012 52.9385 50.9742 44.4859 51.934C45.877 53.1375 47.0565 55.4226 47.0565 59.0027C47.0565 64.1367 47.0111 70.4894 47.0111 71.7387C47.0111 72.7289 47.7067 73.9324 49.627 73.582C64.748 68.5242 75 54.0668 75 37.1719C75 16.0418 57.9889 0 37.0161 0ZM14.6976 52.5434C14.501 52.6957 14.5464 53.0461 14.8034 53.3355C15.0454 53.5793 15.3931 53.6859 15.5897 53.4879C15.7863 53.3355 15.7409 52.9851 15.4839 52.6957C15.2419 52.4519 14.8942 52.3453 14.6976 52.5434ZM13.0645 51.3094C12.9587 51.5074 13.1099 51.7512 13.4123 51.9035C13.6542 52.0559 13.9567 52.0102 14.0625 51.7969C14.1683 51.5988 14.0171 51.3551 13.7147 51.2027C13.4123 51.1113 13.1704 51.157 13.0645 51.3094ZM17.9637 56.7328C17.7218 56.9309 17.8125 57.3879 18.1603 57.6773C18.5081 58.0277 18.9466 58.0734 19.1431 57.8297C19.3397 57.6316 19.249 57.1746 18.9466 56.8852C18.6139 56.5348 18.1603 56.4891 17.9637 56.7328ZM16.2399 54.4934C15.998 54.6457 15.998 55.0418 16.2399 55.3922C16.4819 55.7426 16.8901 55.8949 17.0867 55.7426C17.3286 55.5445 17.3286 55.1484 17.0867 54.798C16.875 54.4477 16.4819 54.2953 16.2399 54.4934Z" fill="white"/>
</svg>
