<svg width="123" height="123" viewBox="0 0 123 123" fill="none" xmlns="http://www.w3.org/2000/svg">
<g clip-path="url(#clip0_22_8)">
<g filter="url(#filter0_d_22_8)">
<path fill-rule="evenodd" clip-rule="evenodd" d="M0 0H122.88V122.88H0V0Z" fill="url(#paint0_linear_22_8)"/>
</g>
<g filter="url(#filter1_d_22_8)">
<path fill-rule="evenodd" clip-rule="evenodd" d="M32.31 102.69L41.71 97C43.52 100.22 45.17 102.94 49.13 102.94C52.92 102.94 55.32 101.46 55.32 95.68V56.41H66.87V95.84C66.87 107.8 59.86 113.24 49.63 113.24C40.39 113.24 35.03 108.46 32.31 102.69ZM73.14 101.45L82.54 96.01C85.02 100.05 88.23 103.02 93.92 103.02C98.7 103.02 101.76 100.63 101.76 97.33C101.76 93.37 98.63 91.97 93.35 89.66L90.46 88.42C82.13 84.87 76.6 80.42 76.6 71.02C76.6 62.36 83.2 55.76 93.51 55.76C100.85 55.76 106.13 58.32 109.92 65L100.93 70.77C98.95 67.22 96.81 65.82 93.51 65.82C90.13 65.82 87.98 67.96 87.98 70.77C87.98 74.23 90.12 75.64 95.07 77.78L97.96 79.02C107.78 83.23 113.3 87.52 113.3 97.17C113.3 107.56 105.13 113.25 94.16 113.25C83.45 113.25 76.52 108.13 73.14 101.45Z" fill="#241F53"/>
</g>
</g>
<defs>
<filter id="filter0_d_22_8" x="-4" y="0" width="130.88" height="130.88" filterUnits="userSpaceOnUse" color-interpolation-filters="sRGB">
<feFlood flood-opacity="0" result="BackgroundImageFix"/>
<feColorMatrix in="SourceAlpha" type="matrix" values="0 0 0 0 0 0 0 0 0 0 0 0 0 0 0 0 0 0 127 0" result="hardAlpha"/>
<feOffset dy="4"/>
<feGaussianBlur stdDeviation="2"/>
<feComposite in2="hardAlpha" operator="out"/>
<feColorMatrix type="matrix" values="0 0 0 0 0 0 0 0 0 0 0 0 0 0 0 0 0 0 0.25 0"/>
<feBlend mode="normal" in2="BackgroundImageFix" result="effect1_dropShadow_22_8"/>
<feBlend mode="normal" in="SourceGraphic" in2="effect1_dropShadow_22_8" result="shape"/>
</filter>
<filter id="filter1_d_22_8" x="28.31" y="55.76" width="88.99" height="65.49" filterUnits="userSpaceOnUse" color-interpolation-filters="sRGB">
<feFlood flood-opacity="0" result="BackgroundImageFix"/>
<feColorMatrix in="SourceAlpha" type="matrix" values="0 0 0 0 0 0 0 0 0 0 0 0 0 0 0 0 0 0 127 0" result="hardAlpha"/>
<feOffset dy="4"/>
<feGaussianBlur stdDeviation="2"/>
<feComposite in2="hardAlpha" operator="out"/>
<feColorMatrix type="matrix" values="0 0 0 0 0 0 0 0 0 0 0 0 0 0 0 0 0 0 0.25 0"/>
<feBlend mode="normal" in2="BackgroundImageFix" result="effect1_dropShadow_22_8"/>
<feBlend mode="normal" in="SourceGraphic" in2="effect1_dropShadow_22_8" result="shape"/>
</filter>
<linearGradient id="paint0_linear_22_8" x1="61.44" y1="0" x2="61.44" y2="122.88" gradientUnits="userSpaceOnUse">
<stop stop-color="#8C52FF"/>
<stop offset="1" stop-color="#D315E3"/>
</linearGradient>
<clipPath id="clip0_22_8">
<rect width="122.88" height="122.88" fill="white"/>
</clipPath>
</defs>
</svg>
