<svg width="29" height="29" viewBox="0 0 29 29" fill="none" xmlns="http://www.w3.org/2000/svg">
<g clip-path="url(#clip0_3_34)">
<path d="M28.3377 25.1315L21.5578 18.3517C23.0995 16.0628 23.8602 13.203 23.453 10.1558C22.7586 4.97258 18.5105 0.754556 13.3222 0.0976944C5.60835 -0.878394 -0.878134 5.60809 0.0980102 13.322C0.755042 18.5125 4.97364 22.764 10.1574 23.455C13.2047 23.8622 16.065 23.1018 18.3533 21.5598L25.1332 28.3397C26.0179 29.2244 27.4526 29.2244 28.3373 28.3397C29.2213 27.4538 29.2213 26.0151 28.3377 25.1315ZM4.48064 11.7814C4.48064 7.78366 7.73294 4.53135 11.7306 4.53135C15.7283 4.53135 18.9806 7.78366 18.9806 11.7814C18.9806 15.779 15.7283 19.0314 11.7306 19.0314C7.73294 19.0314 4.48064 15.7802 4.48064 11.7814Z" fill="#BABBBD"/>
</g>
<defs>
<clipPath id="clip0_3_34">
<rect width="29" height="29" fill="white"/>
</clipPath>
</defs>
</svg>
