<svg width="131" height="118" viewBox="0 0 131 118" fill="none" xmlns="http://www.w3.org/2000/svg">
<g clip-path="url(#clip0_20_2)" filter="url(#filter0_di_20_2)">
<path fill-rule="evenodd" clip-rule="evenodd" d="M126.88 54.73C126.88 46.59 116.69 38.88 101.06 34.09C104.67 18.16 103.06 5.49 96 1.43C94.37 0.48 92.47 0.03 90.39 0.03V5.62C91.54 5.62 92.47 5.85 93.25 6.27C96.66 8.22 98.13 15.66 96.98 25.23C96.7 27.58 96.25 30.06 95.7 32.59C90.79 31.39 85.43 30.46 79.8 29.86C76.42 25.23 72.91 21.02 69.38 17.34C77.54 9.74 85.2 5.59 90.41 5.59V0C83.52 0 74.51 4.91 65.39 13.43C56.27 4.96 47.26 0.1 40.37 0.1V5.69C45.55 5.69 53.24 9.82 61.41 17.36C57.9 21.04 54.4 25.22 51.07 29.86C45.41 30.46 40.05 31.39 35.14 32.61C34.56 30.11 34.14 27.68 33.84 25.35C32.66 15.78 34.12 8.34 37.5 6.36C38.25 5.91 39.23 5.71 40.38 5.71V0.13C38.28 0.13 36.37 0.58 34.72 1.53C27.68 5.59 26.1 18.24 29.74 34.12C14.14 38.92 4 46.61 4 54.73C4 62.87 14.19 70.58 29.82 75.37C26.21 91.3 27.82 103.97 34.88 108.03C36.51 108.98 38.41 109.43 40.52 109.43C47.41 109.43 56.42 104.52 65.54 96C74.66 104.47 83.67 109.33 90.56 109.33C92.66 109.33 94.57 108.88 96.22 107.93C103.26 103.87 104.84 91.22 101.2 75.34C116.74 70.56 126.88 62.84 126.88 54.73ZM76.86 54.73C76.86 48.41 71.74 43.28 65.41 43.28C59.09 43.28 53.96 48.4 53.96 54.73C53.96 61.06 59.08 66.18 65.41 66.18C71.74 66.17 76.86 61.05 76.86 54.73ZM94.27 38.02C93.34 41.25 92.19 44.58 90.89 47.91C89.86 45.91 88.79 43.9 87.61 41.9C86.46 39.9 85.23 37.94 84 36.04C87.56 36.57 90.99 37.22 94.27 38.02ZM82.8 64.7C80.85 68.08 78.84 71.29 76.76 74.27C73.03 74.6 69.25 74.77 65.44 74.77C61.66 74.77 57.88 74.59 54.17 74.29C52.09 71.31 50.06 68.13 48.11 64.77C46.21 61.49 44.48 58.16 42.9 54.8C44.45 51.44 46.21 48.09 48.08 44.81C50.03 41.43 52.04 38.22 54.12 35.24C57.85 34.91 61.63 34.74 65.44 34.74C69.22 34.74 73 34.92 76.71 35.22C78.79 38.2 80.82 41.38 82.77 44.74C84.67 48.02 86.4 51.35 87.98 54.71C86.4 58.06 84.68 61.41 82.8 64.7ZM90.89 61.44C92.24 64.8 93.39 68.15 94.35 71.41C91.07 72.21 87.61 72.89 84.03 73.41C85.26 71.48 86.48 69.5 87.64 67.47C88.78 65.47 89.86 63.44 90.89 61.44ZM65.49 88.16C63.16 85.76 60.83 83.08 58.53 80.15C60.78 80.25 63.09 80.33 65.42 80.33C67.77 80.33 70.1 80.28 72.38 80.15C70.12 83.08 67.79 85.76 65.49 88.16ZM46.86 73.41C43.3 72.88 39.87 72.23 36.59 71.43C37.52 68.2 38.67 64.87 39.97 61.54C41 63.54 42.07 65.55 43.25 67.55C44.43 69.56 45.63 71.51 46.86 73.41ZM65.36 21.29C67.69 23.69 70.02 26.37 72.32 29.3C70.07 29.2 67.76 29.12 65.43 29.12C63.08 29.12 60.75 29.17 58.47 29.3C60.73 26.37 63.06 23.69 65.36 21.29ZM46.83 36.04C45.6 37.97 44.38 39.95 43.22 41.98C42.07 43.98 40.99 45.99 39.96 47.99C38.61 44.63 37.46 41.28 36.5 38.02C39.79 37.24 43.25 36.57 46.83 36.04ZM24.16 67.4C15.29 63.62 9.56 58.66 9.56 54.73C9.56 50.8 15.3 45.81 24.16 42.06C26.31 41.13 28.67 40.31 31.1 39.53C32.53 44.44 34.41 49.55 36.74 54.78C34.44 59.99 32.58 65.07 31.18 69.96C28.7 69.18 26.34 68.33 24.16 67.4ZM37.64 103.19C34.23 101.24 32.76 93.8 33.91 84.23C34.19 81.88 34.64 79.4 35.19 76.87C40.1 78.07 45.46 79 51.09 79.6C54.47 84.23 57.98 88.44 61.51 92.12C53.34 99.71 45.68 103.87 40.47 103.87C39.34 103.84 38.39 103.62 37.64 103.19ZM97.05 84.11C98.23 93.68 96.77 101.12 93.39 103.1C92.64 103.55 91.66 103.75 90.51 103.75C85.33 103.75 77.64 99.62 69.47 92.08C72.98 88.4 76.48 84.22 79.81 79.58C85.47 78.98 90.83 78.05 95.74 76.82C96.32 79.35 96.77 81.78 97.05 84.11ZM106.69 67.4C104.54 68.33 102.18 69.15 99.75 69.93C98.32 65.02 96.44 59.91 94.11 54.68C96.41 49.47 98.27 44.39 99.67 39.5C102.15 40.28 104.5 41.13 106.71 42.05C115.58 45.83 121.31 50.79 121.31 54.72C121.29 58.66 115.56 63.64 106.69 67.4Z" fill="url(#paint0_linear_20_2)"/>
</g>
<defs>
<filter id="filter0_di_20_2" x="0" y="0" width="130.88" height="117.43" filterUnits="userSpaceOnUse" color-interpolation-filters="sRGB">
<feFlood flood-opacity="0" result="BackgroundImageFix"/>
<feColorMatrix in="SourceAlpha" type="matrix" values="0 0 0 0 0 0 0 0 0 0 0 0 0 0 0 0 0 0 127 0" result="hardAlpha"/>
<feOffset dy="4"/>
<feGaussianBlur stdDeviation="2"/>
<feComposite in2="hardAlpha" operator="out"/>
<feColorMatrix type="matrix" values="0 0 0 0 0 0 0 0 0 0 0 0 0 0 0 0 0 0 0.25 0"/>
<feBlend mode="normal" in2="BackgroundImageFix" result="effect1_dropShadow_20_2"/>
<feBlend mode="normal" in="SourceGraphic" in2="effect1_dropShadow_20_2" result="shape"/>
<feColorMatrix in="SourceAlpha" type="matrix" values="0 0 0 0 0 0 0 0 0 0 0 0 0 0 0 0 0 0 127 0" result="hardAlpha"/>
<feOffset dy="4"/>
<feGaussianBlur stdDeviation="2"/>
<feComposite in2="hardAlpha" operator="arithmetic" k2="-1" k3="1"/>
<feColorMatrix type="matrix" values="0 0 0 0 0 0 0 0 0 0 0 0 0 0 0 0 0 0 0.25 0"/>
<feBlend mode="normal" in2="shape" result="effect2_innerShadow_20_2"/>
</filter>
<linearGradient id="paint0_linear_20_2" x1="65.44" y1="6.33833e-07" x2="46.5" y2="147.5" gradientUnits="userSpaceOnUse">
<stop stop-color="#D315E3"/>
<stop offset="1" stop-color="#8C52FF"/>
</linearGradient>
<clipPath id="clip0_20_2">
<rect width="122.88" height="109.43" fill="white" transform="translate(4)"/>
</clipPath>
</defs>
</svg>
